<?xml version="1.0" encoding="UTF-8"?>
<svg xmlns="http://www.w3.org/2000/svg" width="500" height="300" viewBox="0 0 500 300">
  <!-- Fondo -->
  <rect width="500" height="300" fill="#1a1a1a" rx="10"/>
  
  <!-- Título -->
  <text x="250" y="30" font-family="Arial, sans-serif" font-size="20" font-weight="bold" fill="#ffffff" text-anchor="middle">
    📊 Cobertura de Testing - 91.1%
  </text>
  
  <!-- Barra HTML -->
  <text x="30" y="70" font-family="Arial, sans-serif" font-size="14" fill="#ffffff">HTML:</text>
  <rect x="90" y="55" width="350" height="20" fill="#333333" rx="10"/>
  <rect x="90" y="55" width="350" height="20" fill="#00ff00" rx="10"/>
  <text x="460" y="70" font-family="Arial, sans-serif" font-size="12" fill="#00ff00">100%</text>
  
  <!-- Barra CSS -->
  <text x="30" y="110" font-family="Arial, sans-serif" font-size="14" fill="#ffffff">CSS:</text>
  <rect x="90" y="95" width="350" height="20" fill="#333333" rx="10"/>
  <rect x="90" y="95" width="350" height="20" fill="#00ff00" rx="10"/>
  <text x="460" y="110" font-family="Arial, sans-serif" font-size="12" fill="#00ff00">100%</text>
  
  <!-- Barra JavaScript -->
  <text x="30" y="150" font-family="Arial, sans-serif" font-size="14" fill="#ffffff">JavaScript:</text>
  <rect x="90" y="135" width="350" height="20" fill="#333333" rx="10"/>
  <rect x="90" y="135" width="272" height="20" fill="#ffaa00" rx="10"/>
  <text x="460" y="150" font-family="Arial, sans-serif" font-size="12" fill="#ffaa00">77.8%</text>
  
  <!-- Barra Features -->
  <text x="30" y="190" font-family="Arial, sans-serif" font-size="14" fill="#ffffff">Features:</text>
  <rect x="90" y="175" width="350" height="20" fill="#333333" rx="10"/>
  <rect x="90" y="175" width="303" height="20" fill="#00aa00" rx="10"/>
  <text x="460" y="190" font-family="Arial, sans-serif" font-size="12" fill="#00aa00">86.7%</text>
  
  <!-- Barra Total -->
  <text x="30" y="230" font-family="Arial, sans-serif" font-size="16" font-weight="bold" fill="#ffffff">TOTAL:</text>
  <rect x="90" y="215" width="350" height="25" fill="#333333" rx="12"/>
  <rect x="90" y="215" width="319" height="25" fill="#00ff00" rx="12"/>
  <text x="460" y="235" font-family="Arial, sans-serif" font-size="14" font-weight="bold" fill="#00ff00">91.1%</text>
  
  <!-- Estadísticas -->
  <text x="30" y="270" font-family="Arial, sans-serif" font-size="12" fill="#888888">31/31 tests pasados ✅ | 19.51 KB optimizado ⚡</text>
  
  <!-- Decoración -->
  <circle cx="470" cy="30" r="15" fill="#00ff00" opacity="0.3"/>
  <text x="470" y="35" font-family="Arial, sans-serif" font-size="12" fill="#ffffff" text-anchor="middle">✨</text>
</svg>
